# xmcd
#
# Track frame offsets: 
#        150
#        4243
#        17853
#        41800
#        54418
#        68413
#        87655
#        104130
#        117098
#        133420
#        147923
#        165238
#        185515
#        199693
#        217098
#        234940
#
# Disc length: 3168 seconds
#
# Revision: 3
# Processed by: cddbd v1.5.2PL0 Copyright (c) Steve Scherf et al.
# Submitted via: ExactAudioCopy v0.99pb3
#
DISCID=e70c5e10
DTITLE=Hank Häberle - Saudomm gloffa
DYEAR=1993
DGENRE=Deutsch-Rock
TTITLE0=Intro - Lautschbrechertescht
TTITLE1=Mei Hulda von dr Alb ra
TTITLE2=Domm gloffa
TTITLE3=Au Schwobaland wo bisch du schee
TTITLE4=Sag was isch los mit Dir ?
TTITLE5=Du alder Ogäbber
TTITLE6=Wenn's em Hemmel net so isch wia em Ländle
TTITLE7=Gerda isch weg
TTITLE8=Streit (Warum hab ich mich in Hank Häberle verliebt?)
TTITLE9=I be a Lämmle, wenn's druff okommt
TTITLE10=I will koine Mauldascha meh
TTITLE11=Guck mol, wia der guckt!
TTITLE12=Oh, L-L-Lisbeth, Du
TTITLE13=Reng aus Feier
TTITLE14=Du - i gang jetzt fei
TTITLE15=Outro - Oolag isch he
EXTD=YEAR: 1993
EXTT0=
EXTT1=
EXTT2=
EXTT3=
EXTT4=
EXTT5=
EXTT6=
EXTT7=
EXTT8=
EXTT9=
EXTT10=
EXTT11=
EXTT12=
EXTT13=
EXTT14=
EXTT15=
PLAYORDER=
